<svg version="1.1" xmlns="http://www.w3.org/2000/svg" viewBox="-1031.9539103835223 -2236.6031420117156 5369.907896402095 3906.2062197179657"><desc>Created with Snap</desc><defs></defs><g><g transform="matrix(12.2282,0,0,12.2282,-792.6377,-2729.1377)">
<g id="gSkxxhfw1eim">
	<g>
		<g>
			<path d="M387.88501,83.59349V316.4075H12.115V83.59349H387.88501 M391.96945,79.50903H8.03054v240.98294h383.9389V79.50903
				L391.96945,79.50903z" fill="#e8715b" style=""></path>
			<path d="M38.30037,67.71037l353.83911,50.25497l-30.43997,214.32426L7.86052,282.03564L38.30037,67.71037 M36.56565,65.4009
				L5.55142,283.77075l357.88281,50.82834l31.01434-218.36884L36.56565,65.4009L36.56565,65.4009z" fill="#e8715b" style=""></path>
			<path d="M361.69949,67.71037l30.43997,214.32527L38.30037,332.28961L7.86052,117.96535L361.69949,67.71037 M363.43423,65.4009
				L5.55142,116.23025l31.01422,218.36884l357.88293-50.82834L363.43423,65.4009L363.43423,65.4009z" fill="#e8715b" style=""></path>
		</g>
		<rect x="47.64159" y="114.85448" width="304.71683" height="170.29103" fill="#e8715b" style=""></rect>
	</g>
</g>


<desc>Created with Snap</desc><defs></defs></g><g><g transform="matrix(0.5,0,0,-0.5,0,0)"><path d="M162 258Q162 76 295 76Q361 76 419 140Q441 165 460 185Q479 205 499 205Q539 205 539 170Q539 106 457 40Q375 -25 271 -25Q168 -25 114 51Q61 128 61 224Q61 403 127 595Q194 787 302 917Q411 1047 532 1047Q620 1047 648 984Q655 967 664 940Q674 914 686 907Q694 894 694 875Q694 857 677 841Q660 825 639 825Q596 825 584 888Q572 952 517 952Q440 952 357 835Q275 718 218 551Q162 384 162 258ZM1224 1034Q1413 1034 1413 748Q1413 525 1290 269Q1207 97 1090 21Q1030 -18 966 -18Q853 -18 804 72Q755 162 755 266Q755 452 817 627Q880 802 987 918Q1095 1034 1224 1034ZM956 703Q848 487 848 281Q848 138 927 89Q951 74 982 74Q1046 74 1125 185Q1204 296 1258 458Q1312 621 1312 737Q1312 854 1298 885Q1285 916 1267 928Q1250 940 1209 940Q1169 940 1121 908Q1028 848 956 703ZM1680 936L1544 930Q1503 933 1503 967Q1503 1020 1619 1023Q1656 1024 1701 1024L1755 1024Q1811 1255 1845 1350Q1914 1544 2012 1646Q2111 1749 2281 1749Q2451 1749 2451 1688Q2451 1655 2410 1628Q2270 1638 2246 1638Q2097 1638 1995 1461Q1894 1285 1855 1024Q1921 1022 1942 1022L1987 1023L2068 1024L2090 1024Q2100 1024 2115 1022Q2172 1022 2172 983Q2172 933 2074 929Q2047 928 2016 928L1942 928Q1900 928 1834 930Q1795 715 1770 549Q1746 384 1734 315Q1723 247 1710 148Q1698 50 1671 -120Q1600 -558 1386 -734Q1253 -842 1034 -842Q879 -842 750 -768Q699 -738 671 -709Q643 -680 643 -663Q643 -646 661 -632Q679 -618 702 -618L714 -621Q828 -703 887 -723Q946 -743 1042 -743Q1138 -743 1213 -711Q1289 -679 1345 -624Q1402 -569 1443 -495Q1484 -420 1512 -336Q1541 -251 1560 -161Q1580 -70 1594 18Q1609 106 1620 187Q1632 268 1646 334Q1668 483 1688 635Q1708 787 1734 934Q1702 936 1680 936ZM2692 168Q2727 168 2727 131Q2727 88 2622 34Q2517 -20 2447 -20Q2377 -20 2342 3Q2307 26 2285 67Q2242 147 2242 260Q2242 460 2302 637Q2362 814 2462 930Q2562 1047 2678 1047Q2740 1047 2775 995Q2811 944 2811 874Q2811 743 2742 652Q2674 561 2574 503Q2474 445 2344 393L2340 246Q2340 74 2444 74Q2500 74 2561 106Q2623 139 2650 153Q2677 168 2692 168ZM2717 870Q2717 950 2650 950Q2590 950 2509 842Q2428 734 2375 557Q2362 514 2360 492Q2400 514 2442 534Q2484 554 2524 576Q2616 627 2666 695Q2717 764 2717 870ZM3053 1033L3139 1026L3579 1024Q3631 1024 3634 1004Q3635 997 3635 985Q3635 974 3629 963Q3624 953 3617 945Q3611 937 3604 931Q3598 926 3530 833Q3463 741 3279 498Q3095 256 2998 123Q3039 123 3115 95Q3191 68 3254 68Q3452 68 3452 180Q3452 202 3434 230Q3416 258 3416 275Q3416 293 3432 313Q3448 334 3471 334Q3509 334 3530 282Q3551 231 3551 195Q3551 94 3479 35Q3408 -23 3272 -23Q3202 -23 3141 -1Q3080 22 3050 32Q3021 43 2991 43Q2962 43 2916 15Q2870 -12 2852 -12Q2815 -12 2815 25Q2815 39 2828 59Q2990 270 3196 542Q3402 815 3493 932L3248 942L3110 932L3076 932Q2983 932 2983 982Q2983 1033 3053 1033ZM4173 168Q4208 168 4208 131Q4208 88 4103 34Q3998 -20 3928 -20Q3858 -20 3823 3Q3788 26 3766 67Q3723 147 3723 260Q3723 460 3783 637Q3843 814 3943 930Q4043 1047 4159 1047Q4221 1047 4256 995Q4292 944 4292 874Q4292 743 4223 652Q4155 561 4055 503Q3955 445 3825 393L3821 246Q3821 74 3925 74Q3981 74 4042 106Q4104 139 4131 153Q4158 168 4173 168ZM4198 870Q4198 950 4131 950Q4071 950 3990 842Q3909 734 3856 557Q3843 514 3841 492Q3881 514 3923 534Q3965 554 4005 576Q4097 627 4147 695Q4198 764 4198 870ZM4706 956Q4606 956 4606 840Q4606 763 4642 681Q4678 599 4703 550Q4800 357 4800 254Q4800 152 4738 80Q4676 8 4559 -6L4546 -6Q4433 -6 4382 133Q4380 138 4380 142L4380 152Q4380 173 4393 186Q4406 200 4421 203L4432 203Q4452 203 4464 187Q4477 171 4488 151Q4499 132 4512 116Q4525 100 4557 100Q4625 100 4665 142Q4706 185 4706 237Q4706 289 4691 334Q4666 411 4605 526Q4503 715 4503 820Q4503 925 4556 992Q4609 1059 4706 1059Q4766 1059 4809 1034Q4890 987 4890 928Q4890 870 4841 870Q4823 870 4811 883Q4800 897 4787 913Q4752 956 4706 956ZM5143 66L5145 31Q5145 -16 5069 -16Q5034 -16 5034 18Q5034 52 5234 970Q5383 1673 5423 1919L5431 1946Q5440 1976 5467 1976Q5518 1976 5532 1925Q5524 1887 5510 1819Q5497 1751 5479 1664Q5461 1577 5440 1476Q5419 1375 5397 1271Q5375 1167 5330 953Q5285 739 5253 594Q5462 1024 5648 1024Q5724 1024 5761 964Q5798 905 5798 833Q5798 761 5772 632L5738 460Q5682 177 5682 122L5685 44Q5685 18 5667 2Q5650 -14 5621 -14Q5592 -14 5578 6Q5565 27 5565 46Q5565 65 5568 80L5687 745Q5693 777 5693 819Q5693 922 5636 922Q5528 922 5342 599Q5237 416 5213 345Q5189 275 5166 183Q5143 92 5143 66ZM6182 942Q6097 942 6035 932Q5994 936 5994 967Q5994 985 6009 1004Q6024 1023 6049 1026L6197 1022Q6201 1043 6205 1072Q6210 1102 6221 1158Q6233 1215 6253 1261Q6274 1307 6307 1307Q6340 1307 6340 1270L6340 1257Q6311 1133 6291 1024L6438 1024Q6516 1024 6533 1012Q6551 1000 6551 982Q6551 947 6508 936Q6486 930 6419 930Q6353 930 6275 936Q6256 836 6190 562Q6125 288 6125 208Q6125 129 6143 104Q6156 88 6187 88Q6218 88 6240 106Q6262 124 6280 145Q6298 167 6315 185Q6333 203 6354 203Q6395 203 6395 162Q6395 141 6353 92Q6312 44 6277 18Q6242 -8 6175 -8Q6108 -8 6083 15Q6031 61 6031 162Q6031 214 6043 285L6062 401Q6081 487 6096 551Q6111 616 6122 665Q6133 714 6151 792Q6169 871 6182 942Z" fill="#072a55" style=""></path></g></g></g></svg>